<mxfile host="app.diagrams.net" modified="2023-11-30T10:58:26.488Z" agent="Mozilla/5.0 (Windows NT 10.0; Win64; x64) AppleWebKit/537.36 (KHTML, like Gecko) Chrome/119.0.0.0 Safari/537.36" etag="M19sSUZwklaQdMl_UnwO" version="22.1.4" type="device">
  <diagram name="Page-1" id="VkfnlF7qGmTDGDxlfwNi">
    <mxGraphModel dx="2580" dy="1324" grid="1" gridSize="10" guides="1" tooltips="1" connect="1" arrows="1" fold="1" page="1" pageScale="1" pageWidth="1169" pageHeight="1654" background="none" math="0" shadow="0">
      <root>
        <mxCell id="0" />
        <mxCell id="1" parent="0" />
        <mxCell id="WMn6grZ0DW30NmEa86e4-182" style="edgeStyle=orthogonalEdgeStyle;rounded=0;orthogonalLoop=1;jettySize=auto;html=1;exitX=0.5;exitY=0;exitDx=0;exitDy=0;entryX=0.643;entryY=-0.069;entryDx=0;entryDy=0;entryPerimeter=0;dashed=1;dashPattern=12 12;" parent="1" source="WMn6grZ0DW30NmEa86e4-6" target="WMn6grZ0DW30NmEa86e4-174" edge="1">
          <mxGeometry relative="1" as="geometry">
            <mxPoint x="630" y="220" as="targetPoint" />
            <Array as="points">
              <mxPoint x="208" y="230" />
              <mxPoint x="655" y="230" />
            </Array>
          </mxGeometry>
        </mxCell>
        <mxCell id="WMn6grZ0DW30NmEa86e4-183" style="edgeStyle=orthogonalEdgeStyle;rounded=0;orthogonalLoop=1;jettySize=auto;html=1;exitX=0.25;exitY=1;exitDx=0;exitDy=0;entryX=0;entryY=0.5;entryDx=0;entryDy=0;dashed=1;dashPattern=12 12;" parent="1" source="WMn6grZ0DW30NmEa86e4-6" target="WMn6grZ0DW30NmEa86e4-172" edge="1">
          <mxGeometry relative="1" as="geometry" />
        </mxCell>
        <mxCell id="WMn6grZ0DW30NmEa86e4-195" style="edgeStyle=orthogonalEdgeStyle;rounded=0;orthogonalLoop=1;jettySize=auto;html=1;entryX=0;entryY=0.5;entryDx=0;entryDy=0;dashed=1;dashPattern=12 12;" parent="1" source="WMn6grZ0DW30NmEa86e4-6" target="WMn6grZ0DW30NmEa86e4-168" edge="1">
          <mxGeometry relative="1" as="geometry" />
        </mxCell>
        <mxCell id="WMn6grZ0DW30NmEa86e4-6" value="ClientVéhicule" style="html=1;whiteSpace=wrap;" parent="1" vertex="1">
          <mxGeometry x="150" y="280" width="115" height="30" as="geometry" />
        </mxCell>
        <mxCell id="WMn6grZ0DW30NmEa86e4-184" style="edgeStyle=orthogonalEdgeStyle;rounded=0;orthogonalLoop=1;jettySize=auto;html=1;entryX=0.5;entryY=0;entryDx=0;entryDy=0;dashed=1;dashPattern=12 12;" parent="1" source="WMn6grZ0DW30NmEa86e4-168" target="WMn6grZ0DW30NmEa86e4-170" edge="1">
          <mxGeometry relative="1" as="geometry" />
        </mxCell>
        <mxCell id="WMn6grZ0DW30NmEa86e4-168" value="Vendeur&lt;br&gt;" style="swimlane;fontStyle=0;childLayout=stackLayout;horizontal=1;startSize=26;fillColor=none;horizontalStack=0;resizeParent=1;resizeParentMax=0;resizeLast=0;collapsible=1;marginBottom=0;whiteSpace=wrap;html=1;" parent="1" vertex="1">
          <mxGeometry x="400" y="269" width="140" height="52" as="geometry" />
        </mxCell>
        <mxCell id="WMn6grZ0DW30NmEa86e4-169" value="+ Construit" style="text;strokeColor=none;fillColor=none;align=left;verticalAlign=top;spacingLeft=4;spacingRight=4;overflow=hidden;rotatable=0;points=[[0,0.5],[1,0.5]];portConstraint=eastwest;whiteSpace=wrap;html=1;" parent="WMn6grZ0DW30NmEa86e4-168" vertex="1">
          <mxGeometry y="26" width="140" height="26" as="geometry" />
        </mxCell>
        <mxCell id="WMn6grZ0DW30NmEa86e4-192" style="edgeStyle=orthogonalEdgeStyle;rounded=0;orthogonalLoop=1;jettySize=auto;html=1;" parent="1" source="WMn6grZ0DW30NmEa86e4-170" target="WMn6grZ0DW30NmEa86e4-176" edge="1">
          <mxGeometry relative="1" as="geometry">
            <mxPoint x="470" y="820" as="targetPoint" />
            <Array as="points">
              <mxPoint x="760" y="386" />
              <mxPoint x="760" y="820" />
              <mxPoint x="470" y="820" />
            </Array>
          </mxGeometry>
        </mxCell>
        <mxCell id="WMn6grZ0DW30NmEa86e4-170" value="ConstructeurLiasseVéhicule&lt;br&gt;" style="swimlane;fontStyle=0;childLayout=stackLayout;horizontal=1;startSize=26;fillColor=none;horizontalStack=0;resizeParent=1;resizeParentMax=0;resizeLast=0;collapsible=1;marginBottom=0;whiteSpace=wrap;html=1;" parent="1" vertex="1">
          <mxGeometry x="355" y="350" width="230" height="80" as="geometry" />
        </mxCell>
        <mxCell id="WMn6grZ0DW30NmEa86e4-171" value="+ ConstruitBonDeCommande()&lt;br&gt;+ ConstruitDemandeImmatriculation()&lt;br&gt;+ Résultat()" style="text;strokeColor=none;fillColor=none;align=left;verticalAlign=top;spacingLeft=4;spacingRight=4;overflow=hidden;rotatable=0;points=[[0,0.5],[1,0.5]];portConstraint=eastwest;whiteSpace=wrap;html=1;" parent="WMn6grZ0DW30NmEa86e4-170" vertex="1">
          <mxGeometry y="26" width="230" height="54" as="geometry" />
        </mxCell>
        <mxCell id="WMn6grZ0DW30NmEa86e4-185" style="edgeStyle=orthogonalEdgeStyle;rounded=0;orthogonalLoop=1;jettySize=auto;html=1;" parent="1" source="WMn6grZ0DW30NmEa86e4-172" target="WMn6grZ0DW30NmEa86e4-170" edge="1">
          <mxGeometry relative="1" as="geometry" />
        </mxCell>
        <mxCell id="WMn6grZ0DW30NmEa86e4-189" style="edgeStyle=orthogonalEdgeStyle;rounded=0;orthogonalLoop=1;jettySize=auto;html=1;entryX=0.5;entryY=0;entryDx=0;entryDy=0;dashed=1;dashPattern=12 12;" parent="1" source="WMn6grZ0DW30NmEa86e4-172" target="WMn6grZ0DW30NmEa86e4-178" edge="1">
          <mxGeometry relative="1" as="geometry" />
        </mxCell>
        <mxCell id="WMn6grZ0DW30NmEa86e4-172" value="ConstructeurLiasseVéhiculeHtml" style="swimlane;fontStyle=0;childLayout=stackLayout;horizontal=1;startSize=26;fillColor=none;horizontalStack=0;resizeParent=1;resizeParentMax=0;resizeLast=0;collapsible=1;marginBottom=0;whiteSpace=wrap;html=1;" parent="1" vertex="1">
          <mxGeometry x="215" y="510" width="230" height="70" as="geometry" />
        </mxCell>
        <mxCell id="WMn6grZ0DW30NmEa86e4-173" value="+ ConstruitBonDeCommande()&lt;br style=&quot;border-color: var(--border-color);&quot;&gt;+ ConstruitDemandeImmatriculation()" style="text;strokeColor=none;fillColor=none;align=left;verticalAlign=top;spacingLeft=4;spacingRight=4;overflow=hidden;rotatable=0;points=[[0,0.5],[1,0.5]];portConstraint=eastwest;whiteSpace=wrap;html=1;" parent="WMn6grZ0DW30NmEa86e4-172" vertex="1">
          <mxGeometry y="26" width="230" height="44" as="geometry" />
        </mxCell>
        <mxCell id="WMn6grZ0DW30NmEa86e4-186" style="edgeStyle=orthogonalEdgeStyle;rounded=0;orthogonalLoop=1;jettySize=auto;html=1;exitX=0.5;exitY=0;exitDx=0;exitDy=0;" parent="1" source="WMn6grZ0DW30NmEa86e4-174" target="WMn6grZ0DW30NmEa86e4-170" edge="1">
          <mxGeometry relative="1" as="geometry" />
        </mxCell>
        <mxCell id="WMn6grZ0DW30NmEa86e4-188" style="edgeStyle=orthogonalEdgeStyle;rounded=0;orthogonalLoop=1;jettySize=auto;html=1;entryX=0.5;entryY=0;entryDx=0;entryDy=0;dashed=1;dashPattern=12 12;" parent="1" source="WMn6grZ0DW30NmEa86e4-174" target="WMn6grZ0DW30NmEa86e4-180" edge="1">
          <mxGeometry relative="1" as="geometry" />
        </mxCell>
        <mxCell id="WMn6grZ0DW30NmEa86e4-174" value="ConstructeurLiasseVehiculePdf" style="swimlane;fontStyle=0;childLayout=stackLayout;horizontal=1;startSize=26;fillColor=none;horizontalStack=0;resizeParent=1;resizeParentMax=0;resizeLast=0;collapsible=1;marginBottom=0;whiteSpace=wrap;html=1;" parent="1" vertex="1">
          <mxGeometry x="520" y="510" width="210" height="70" as="geometry" />
        </mxCell>
        <mxCell id="WMn6grZ0DW30NmEa86e4-175" value="+ ConstruitBonDeCommande()&lt;br style=&quot;border-color: var(--border-color);&quot;&gt;+ ConstruitDemandeImmatriculation()" style="text;strokeColor=none;fillColor=none;align=left;verticalAlign=top;spacingLeft=4;spacingRight=4;overflow=hidden;rotatable=0;points=[[0,0.5],[1,0.5]];portConstraint=eastwest;whiteSpace=wrap;html=1;" parent="WMn6grZ0DW30NmEa86e4-174" vertex="1">
          <mxGeometry y="26" width="210" height="44" as="geometry" />
        </mxCell>
        <mxCell id="WMn6grZ0DW30NmEa86e4-176" value="Liasse" style="swimlane;fontStyle=0;childLayout=stackLayout;horizontal=1;startSize=26;fillColor=none;horizontalStack=0;resizeParent=1;resizeParentMax=0;resizeLast=0;collapsible=1;marginBottom=0;whiteSpace=wrap;html=1;" parent="1" vertex="1">
          <mxGeometry x="410" y="620" width="140" height="70" as="geometry" />
        </mxCell>
        <mxCell id="WMn6grZ0DW30NmEa86e4-177" value="+ ajouteDocument()&lt;br style=&quot;border-color: var(--border-color);&quot;&gt;+ imprime()" style="text;strokeColor=none;fillColor=none;align=left;verticalAlign=top;spacingLeft=4;spacingRight=4;overflow=hidden;rotatable=0;points=[[0,0.5],[1,0.5]];portConstraint=eastwest;whiteSpace=wrap;html=1;" parent="WMn6grZ0DW30NmEa86e4-176" vertex="1">
          <mxGeometry y="26" width="140" height="44" as="geometry" />
        </mxCell>
        <mxCell id="WMn6grZ0DW30NmEa86e4-194" style="edgeStyle=orthogonalEdgeStyle;rounded=0;orthogonalLoop=1;jettySize=auto;html=1;" parent="1" source="WMn6grZ0DW30NmEa86e4-178" target="WMn6grZ0DW30NmEa86e4-176" edge="1">
          <mxGeometry relative="1" as="geometry">
            <Array as="points">
              <mxPoint x="330" y="655" />
            </Array>
          </mxGeometry>
        </mxCell>
        <mxCell id="WMn6grZ0DW30NmEa86e4-178" value="LiasseHtml" style="swimlane;fontStyle=0;childLayout=stackLayout;horizontal=1;startSize=26;fillColor=none;horizontalStack=0;resizeParent=1;resizeParentMax=0;resizeLast=0;collapsible=1;marginBottom=0;whiteSpace=wrap;html=1;" parent="1" vertex="1">
          <mxGeometry x="260" y="730" width="140" height="70" as="geometry" />
        </mxCell>
        <mxCell id="WMn6grZ0DW30NmEa86e4-179" value="+ ajouteDocument()&lt;br&gt;+ imprime()" style="text;strokeColor=none;fillColor=none;align=left;verticalAlign=top;spacingLeft=4;spacingRight=4;overflow=hidden;rotatable=0;points=[[0,0.5],[1,0.5]];portConstraint=eastwest;whiteSpace=wrap;html=1;" parent="WMn6grZ0DW30NmEa86e4-178" vertex="1">
          <mxGeometry y="26" width="140" height="44" as="geometry" />
        </mxCell>
        <mxCell id="WMn6grZ0DW30NmEa86e4-190" style="edgeStyle=orthogonalEdgeStyle;rounded=0;orthogonalLoop=1;jettySize=auto;html=1;" parent="1" source="WMn6grZ0DW30NmEa86e4-180" target="WMn6grZ0DW30NmEa86e4-176" edge="1">
          <mxGeometry relative="1" as="geometry">
            <Array as="points">
              <mxPoint x="570" y="646" />
            </Array>
          </mxGeometry>
        </mxCell>
        <mxCell id="WMn6grZ0DW30NmEa86e4-180" value="LiassePdf" style="swimlane;fontStyle=0;childLayout=stackLayout;horizontal=1;startSize=26;fillColor=none;horizontalStack=0;resizeParent=1;resizeParentMax=0;resizeLast=0;collapsible=1;marginBottom=0;whiteSpace=wrap;html=1;" parent="1" vertex="1">
          <mxGeometry x="555" y="730" width="140" height="70" as="geometry" />
        </mxCell>
        <mxCell id="WMn6grZ0DW30NmEa86e4-181" value="+ ajouteDocument()&lt;br style=&quot;border-color: var(--border-color);&quot;&gt;+ imprime()" style="text;strokeColor=none;fillColor=none;align=left;verticalAlign=top;spacingLeft=4;spacingRight=4;overflow=hidden;rotatable=0;points=[[0,0.5],[1,0.5]];portConstraint=eastwest;whiteSpace=wrap;html=1;" parent="WMn6grZ0DW30NmEa86e4-180" vertex="1">
          <mxGeometry y="26" width="140" height="44" as="geometry" />
        </mxCell>
        <mxCell id="WMn6grZ0DW30NmEa86e4-187" style="edgeStyle=orthogonalEdgeStyle;rounded=0;orthogonalLoop=1;jettySize=auto;html=1;entryX=0.5;entryY=0;entryDx=0;entryDy=0;dashed=1;dashPattern=12 12;" parent="1" edge="1">
          <mxGeometry relative="1" as="geometry">
            <mxPoint x="510" y="412" as="sourcePoint" />
            <mxPoint x="480" y="620" as="targetPoint" />
            <Array as="points">
              <mxPoint x="510" y="570" />
              <mxPoint x="480" y="570" />
            </Array>
          </mxGeometry>
        </mxCell>
        <mxCell id="WMn6grZ0DW30NmEa86e4-197" value="" style="ellipse;whiteSpace=wrap;html=1;aspect=fixed;" parent="1" vertex="1">
          <mxGeometry x="568" y="358" width="10" height="10" as="geometry" />
        </mxCell>
        <mxCell id="WMn6grZ0DW30NmEa86e4-198" value="" style="ellipse;whiteSpace=wrap;html=1;aspect=fixed;" parent="1" vertex="1">
          <mxGeometry x="533" y="629" width="10" height="10" as="geometry" />
        </mxCell>
        <mxCell id="WMn6grZ0DW30NmEa86e4-200" value="Builder" style="text;strokeColor=none;fillColor=none;html=1;fontSize=24;fontStyle=1;verticalAlign=middle;align=center;" parent="1" vertex="1">
          <mxGeometry x="70" y="190" width="110" height="50" as="geometry" />
        </mxCell>
        <mxCell id="WMn6grZ0DW30NmEa86e4-201" value="Adapter" style="text;strokeColor=none;fillColor=none;html=1;fontSize=24;fontStyle=1;verticalAlign=middle;align=center;" parent="1" vertex="1">
          <mxGeometry x="210" y="1110" width="130" height="40" as="geometry" />
        </mxCell>
        <mxCell id="WMn6grZ0DW30NmEa86e4-226" style="edgeStyle=orthogonalEdgeStyle;rounded=0;orthogonalLoop=1;jettySize=auto;html=1;dashed=1;dashPattern=12 12;" parent="1" source="WMn6grZ0DW30NmEa86e4-202" target="WMn6grZ0DW30NmEa86e4-206" edge="1">
          <mxGeometry relative="1" as="geometry" />
        </mxCell>
        <mxCell id="WMn6grZ0DW30NmEa86e4-202" value="ServeurWeb" style="swimlane;fontStyle=0;childLayout=stackLayout;horizontal=1;startSize=26;fillColor=none;horizontalStack=0;resizeParent=1;resizeParentMax=0;resizeLast=0;collapsible=1;marginBottom=0;whiteSpace=wrap;html=1;" parent="1" vertex="1">
          <mxGeometry x="355" y="1150" width="140" height="30" as="geometry" />
        </mxCell>
        <mxCell id="WMn6grZ0DW30NmEa86e4-206" value="Document" style="swimlane;fontStyle=0;childLayout=stackLayout;horizontal=1;startSize=26;fillColor=none;horizontalStack=0;resizeParent=1;resizeParentMax=0;resizeLast=0;collapsible=1;marginBottom=0;whiteSpace=wrap;html=1;" parent="1" vertex="1">
          <mxGeometry x="355" y="1218" width="140" height="78" as="geometry" />
        </mxCell>
        <mxCell id="WMn6grZ0DW30NmEa86e4-207" value="+ void: dessine" style="text;strokeColor=none;fillColor=none;align=left;verticalAlign=top;spacingLeft=4;spacingRight=4;overflow=hidden;rotatable=0;points=[[0,0.5],[1,0.5]];portConstraint=eastwest;whiteSpace=wrap;html=1;" parent="WMn6grZ0DW30NmEa86e4-206" vertex="1">
          <mxGeometry y="26" width="140" height="26" as="geometry" />
        </mxCell>
        <mxCell id="WMn6grZ0DW30NmEa86e4-208" value="+ void: imprime" style="text;strokeColor=none;fillColor=none;align=left;verticalAlign=top;spacingLeft=4;spacingRight=4;overflow=hidden;rotatable=0;points=[[0,0.5],[1,0.5]];portConstraint=eastwest;whiteSpace=wrap;html=1;" parent="WMn6grZ0DW30NmEa86e4-206" vertex="1">
          <mxGeometry y="52" width="140" height="26" as="geometry" />
        </mxCell>
        <mxCell id="WMn6grZ0DW30NmEa86e4-210" value="ComposantPdf" style="swimlane;fontStyle=0;childLayout=stackLayout;horizontal=1;startSize=30;fillColor=none;horizontalStack=0;resizeParent=1;resizeParentMax=0;resizeLast=0;collapsible=1;marginBottom=0;whiteSpace=wrap;html=1;" parent="1" vertex="1">
          <mxGeometry x="640" y="1458" width="170" height="56" as="geometry" />
        </mxCell>
        <mxCell id="WMn6grZ0DW30NmEa86e4-212" value="+&amp;nbsp;void pdfFixeContenu" style="text;strokeColor=none;fillColor=none;align=left;verticalAlign=top;spacingLeft=4;spacingRight=4;overflow=hidden;rotatable=0;points=[[0,0.5],[1,0.5]];portConstraint=eastwest;whiteSpace=wrap;html=1;" parent="WMn6grZ0DW30NmEa86e4-210" vertex="1">
          <mxGeometry y="30" width="170" height="26" as="geometry" />
        </mxCell>
        <mxCell id="WMn6grZ0DW30NmEa86e4-224" style="edgeStyle=orthogonalEdgeStyle;rounded=0;orthogonalLoop=1;jettySize=auto;html=1;dashed=1;dashPattern=12 12;" parent="1" source="WMn6grZ0DW30NmEa86e4-214" target="WMn6grZ0DW30NmEa86e4-206" edge="1">
          <mxGeometry relative="1" as="geometry" />
        </mxCell>
        <mxCell id="WMn6grZ0DW30NmEa86e4-214" value="DocumentHtml" style="swimlane;fontStyle=0;childLayout=stackLayout;horizontal=1;startSize=26;fillColor=none;horizontalStack=0;resizeParent=1;resizeParentMax=0;resizeLast=0;collapsible=1;marginBottom=0;whiteSpace=wrap;html=1;" parent="1" vertex="1">
          <mxGeometry x="240" y="1460" width="140" height="52" as="geometry" />
        </mxCell>
        <mxCell id="WMn6grZ0DW30NmEa86e4-215" value="+ field: type" style="text;strokeColor=none;fillColor=none;align=left;verticalAlign=top;spacingLeft=4;spacingRight=4;overflow=hidden;rotatable=0;points=[[0,0.5],[1,0.5]];portConstraint=eastwest;whiteSpace=wrap;html=1;" parent="WMn6grZ0DW30NmEa86e4-214" vertex="1">
          <mxGeometry y="26" width="140" height="26" as="geometry" />
        </mxCell>
        <mxCell id="WMn6grZ0DW30NmEa86e4-223" style="edgeStyle=orthogonalEdgeStyle;rounded=0;orthogonalLoop=1;jettySize=auto;html=1;exitX=0.5;exitY=0;exitDx=0;exitDy=0;dashed=1;dashPattern=12 12;" parent="1" source="WMn6grZ0DW30NmEa86e4-218" target="WMn6grZ0DW30NmEa86e4-206" edge="1">
          <mxGeometry relative="1" as="geometry" />
        </mxCell>
        <mxCell id="WMn6grZ0DW30NmEa86e4-229" style="edgeStyle=orthogonalEdgeStyle;rounded=0;orthogonalLoop=1;jettySize=auto;html=1;exitX=1;exitY=0.5;exitDx=0;exitDy=0;" parent="1" source="WMn6grZ0DW30NmEa86e4-218" target="WMn6grZ0DW30NmEa86e4-210" edge="1">
          <mxGeometry relative="1" as="geometry" />
        </mxCell>
        <mxCell id="WMn6grZ0DW30NmEa86e4-218" value="DocumentPdf" style="swimlane;fontStyle=0;childLayout=stackLayout;horizontal=1;startSize=26;fillColor=none;horizontalStack=0;resizeParent=1;resizeParentMax=0;resizeLast=0;collapsible=1;marginBottom=0;whiteSpace=wrap;html=1;" parent="1" vertex="1">
          <mxGeometry x="460" y="1460" width="140" height="52" as="geometry" />
        </mxCell>
        <mxCell id="WMn6grZ0DW30NmEa86e4-219" value="+ field: type" style="text;strokeColor=none;fillColor=none;align=left;verticalAlign=top;spacingLeft=4;spacingRight=4;overflow=hidden;rotatable=0;points=[[0,0.5],[1,0.5]];portConstraint=eastwest;whiteSpace=wrap;html=1;" parent="WMn6grZ0DW30NmEa86e4-218" vertex="1">
          <mxGeometry y="26" width="140" height="26" as="geometry" />
        </mxCell>
        <mxCell id="WMn6grZ0DW30NmEa86e4-228" value="" style="ellipse;whiteSpace=wrap;html=1;aspect=fixed;" parent="1" vertex="1">
          <mxGeometry x="480" y="1225" width="10" height="10" as="geometry" />
        </mxCell>
        <mxCell id="WMn6grZ0DW30NmEa86e4-230" value="Bridge" style="text;strokeColor=none;fillColor=none;html=1;fontSize=24;fontStyle=1;verticalAlign=middle;align=center;" parent="1" vertex="1">
          <mxGeometry x="1404" y="324" width="80" height="40" as="geometry" />
        </mxCell>
        <mxCell id="WMn6grZ0DW30NmEa86e4-231" value="Utilisateur&lt;br&gt;(Client)" style="swimlane;fontStyle=0;childLayout=stackLayout;horizontal=1;startSize=40;fillColor=none;horizontalStack=0;resizeParent=1;resizeParentMax=0;resizeLast=0;collapsible=1;marginBottom=0;whiteSpace=wrap;html=1;" parent="1" vertex="1">
          <mxGeometry x="1547" y="310" width="145" height="40" as="geometry" />
        </mxCell>
        <mxCell id="WMn6grZ0DW30NmEa86e4-271" style="edgeStyle=orthogonalEdgeStyle;rounded=0;orthogonalLoop=1;jettySize=auto;html=1;dashed=1;dashPattern=12 12;" parent="1" source="WMn6grZ0DW30NmEa86e4-235" target="WMn6grZ0DW30NmEa86e4-248" edge="1">
          <mxGeometry relative="1" as="geometry" />
        </mxCell>
        <mxCell id="WMn6grZ0DW30NmEa86e4-235" value="FormImmatriculationFrance&lt;br&gt;(Abstraction Raffiné)" style="swimlane;fontStyle=0;childLayout=stackLayout;horizontal=1;startSize=43;fillColor=none;horizontalStack=0;resizeParent=1;resizeParentMax=0;resizeLast=0;collapsible=1;marginBottom=0;whiteSpace=wrap;html=1;" parent="1" vertex="1">
          <mxGeometry x="1404" y="697" width="180" height="69" as="geometry" />
        </mxCell>
        <mxCell id="WMn6grZ0DW30NmEa86e4-236" value="# controleSaisie: bool" style="text;strokeColor=none;fillColor=none;align=left;verticalAlign=top;spacingLeft=4;spacingRight=4;overflow=hidden;rotatable=0;points=[[0,0.5],[1,0.5]];portConstraint=eastwest;whiteSpace=wrap;html=1;" parent="WMn6grZ0DW30NmEa86e4-235" vertex="1">
          <mxGeometry y="43" width="180" height="26" as="geometry" />
        </mxCell>
        <mxCell id="WMn6grZ0DW30NmEa86e4-257" style="edgeStyle=orthogonalEdgeStyle;rounded=0;orthogonalLoop=1;jettySize=auto;html=1;dashed=1;dashPattern=12 12;" parent="1" source="WMn6grZ0DW30NmEa86e4-239" target="WMn6grZ0DW30NmEa86e4-252" edge="1">
          <mxGeometry relative="1" as="geometry" />
        </mxCell>
        <mxCell id="WMn6grZ0DW30NmEa86e4-239" value="FormHtmlImpl&lt;br&gt;(Implémentation Raffiné)" style="swimlane;fontStyle=0;childLayout=stackLayout;horizontal=1;startSize=46;fillColor=none;horizontalStack=0;resizeParent=1;resizeParentMax=0;resizeLast=0;collapsible=1;marginBottom=0;whiteSpace=wrap;html=1;" parent="1" vertex="1">
          <mxGeometry x="1943" y="575" width="160" height="98" as="geometry" />
        </mxCell>
        <mxCell id="WMn6grZ0DW30NmEa86e4-240" value="+ dessineTexte: void" style="text;strokeColor=none;fillColor=none;align=left;verticalAlign=top;spacingLeft=4;spacingRight=4;overflow=hidden;rotatable=0;points=[[0,0.5],[1,0.5]];portConstraint=eastwest;whiteSpace=wrap;html=1;" parent="WMn6grZ0DW30NmEa86e4-239" vertex="1">
          <mxGeometry y="46" width="160" height="24" as="geometry" />
        </mxCell>
        <mxCell id="WMn6grZ0DW30NmEa86e4-241" value="+&amp;nbsp;gereZoneSaisie: string" style="text;strokeColor=none;fillColor=none;align=left;verticalAlign=top;spacingLeft=4;spacingRight=4;overflow=hidden;rotatable=0;points=[[0,0.5],[1,0.5]];portConstraint=eastwest;whiteSpace=wrap;html=1;" parent="WMn6grZ0DW30NmEa86e4-239" vertex="1">
          <mxGeometry y="70" width="160" height="28" as="geometry" />
        </mxCell>
        <mxCell id="WMn6grZ0DW30NmEa86e4-270" style="edgeStyle=orthogonalEdgeStyle;rounded=0;orthogonalLoop=1;jettySize=auto;html=1;dashed=1;dashPattern=12 12;" parent="1" source="WMn6grZ0DW30NmEa86e4-242" target="WMn6grZ0DW30NmEa86e4-248" edge="1">
          <mxGeometry relative="1" as="geometry" />
        </mxCell>
        <mxCell id="WMn6grZ0DW30NmEa86e4-242" value="FormImmatriculationLuxembourg&lt;br&gt;(Abstraction Raffiné)" style="swimlane;fontStyle=0;childLayout=stackLayout;horizontal=1;startSize=43;fillColor=none;horizontalStack=0;resizeParent=1;resizeParentMax=0;resizeLast=0;collapsible=1;marginBottom=0;whiteSpace=wrap;html=1;" parent="1" vertex="1">
          <mxGeometry x="1634" y="697" width="210" height="70" as="geometry" />
        </mxCell>
        <mxCell id="WMn6grZ0DW30NmEa86e4-243" value="# controleSaisie&lt;span style=&quot;background-color: initial;&quot;&gt;: bool&lt;/span&gt;" style="text;strokeColor=none;fillColor=none;align=left;verticalAlign=top;spacingLeft=4;spacingRight=4;overflow=hidden;rotatable=0;points=[[0,0.5],[1,0.5]];portConstraint=eastwest;whiteSpace=wrap;html=1;" parent="WMn6grZ0DW30NmEa86e4-242" vertex="1">
          <mxGeometry y="43" width="210" height="27" as="geometry" />
        </mxCell>
        <mxCell id="WMn6grZ0DW30NmEa86e4-265" style="edgeStyle=orthogonalEdgeStyle;rounded=0;orthogonalLoop=1;jettySize=auto;html=1;dashed=1;dashPattern=12 12;" parent="1" source="WMn6grZ0DW30NmEa86e4-245" target="WMn6grZ0DW30NmEa86e4-252" edge="1">
          <mxGeometry relative="1" as="geometry" />
        </mxCell>
        <mxCell id="WMn6grZ0DW30NmEa86e4-245" value="FormAppletImpl&lt;br&gt;(Implémentation Raffiné)" style="swimlane;fontStyle=0;childLayout=stackLayout;horizontal=1;startSize=36;fillColor=none;horizontalStack=0;resizeParent=1;resizeParentMax=0;resizeLast=0;collapsible=1;marginBottom=0;whiteSpace=wrap;html=1;" parent="1" vertex="1">
          <mxGeometry x="1763" y="579" width="160" height="88" as="geometry" />
        </mxCell>
        <mxCell id="WMn6grZ0DW30NmEa86e4-246" value="+ dessineTexte: void" style="text;strokeColor=none;fillColor=none;align=left;verticalAlign=top;spacingLeft=4;spacingRight=4;overflow=hidden;rotatable=0;points=[[0,0.5],[1,0.5]];portConstraint=eastwest;whiteSpace=wrap;html=1;" parent="WMn6grZ0DW30NmEa86e4-245" vertex="1">
          <mxGeometry y="36" width="160" height="26" as="geometry" />
        </mxCell>
        <mxCell id="WMn6grZ0DW30NmEa86e4-247" value="+&amp;nbsp;gereZoneSaisie: string" style="text;strokeColor=none;fillColor=none;align=left;verticalAlign=top;spacingLeft=4;spacingRight=4;overflow=hidden;rotatable=0;points=[[0,0.5],[1,0.5]];portConstraint=eastwest;whiteSpace=wrap;html=1;" parent="WMn6grZ0DW30NmEa86e4-245" vertex="1">
          <mxGeometry y="62" width="160" height="26" as="geometry" />
        </mxCell>
        <mxCell id="WMn6grZ0DW30NmEa86e4-261" style="edgeStyle=orthogonalEdgeStyle;rounded=0;orthogonalLoop=1;jettySize=auto;html=1;" parent="1" source="WMn6grZ0DW30NmEa86e4-248" target="WMn6grZ0DW30NmEa86e4-231" edge="1">
          <mxGeometry relative="1" as="geometry" />
        </mxCell>
        <mxCell id="WMn6grZ0DW30NmEa86e4-248" value="FormulaireImmatriculation&lt;br&gt;(Abstraction)" style="swimlane;fontStyle=0;childLayout=stackLayout;horizontal=1;startSize=39;fillColor=none;horizontalStack=0;resizeParent=1;resizeParentMax=0;resizeLast=0;collapsible=1;marginBottom=0;whiteSpace=wrap;html=1;" parent="1" vertex="1">
          <mxGeometry x="1514" y="376" width="210" height="139" as="geometry" />
        </mxCell>
        <mxCell id="WMn6grZ0DW30NmEa86e4-249" value="+&amp;nbsp;affiche&lt;span style=&quot;background-color: initial;&quot;&gt;: void&lt;/span&gt;" style="text;strokeColor=none;fillColor=none;align=left;verticalAlign=top;spacingLeft=4;spacingRight=4;overflow=hidden;rotatable=0;points=[[0,0.5],[1,0.5]];portConstraint=eastwest;whiteSpace=wrap;html=1;" parent="WMn6grZ0DW30NmEa86e4-248" vertex="1">
          <mxGeometry y="39" width="210" height="26" as="geometry" />
        </mxCell>
        <mxCell id="WMn6grZ0DW30NmEa86e4-250" value="+&amp;nbsp;genereDocument&lt;span style=&quot;background-color: initial;&quot;&gt;: void&lt;/span&gt;" style="text;strokeColor=none;fillColor=none;align=left;verticalAlign=top;spacingLeft=4;spacingRight=4;overflow=hidden;rotatable=0;points=[[0,0.5],[1,0.5]];portConstraint=eastwest;whiteSpace=wrap;html=1;" parent="WMn6grZ0DW30NmEa86e4-248" vertex="1">
          <mxGeometry y="65" width="210" height="26" as="geometry" />
        </mxCell>
        <mxCell id="WMn6grZ0DW30NmEa86e4-251" value="+&amp;nbsp;gereSaisie&lt;span style=&quot;background-color: initial;&quot;&gt;: bool&lt;/span&gt;" style="text;strokeColor=none;fillColor=none;align=left;verticalAlign=top;spacingLeft=4;spacingRight=4;overflow=hidden;rotatable=0;points=[[0,0.5],[1,0.5]];portConstraint=eastwest;whiteSpace=wrap;html=1;" parent="WMn6grZ0DW30NmEa86e4-248" vertex="1">
          <mxGeometry y="91" width="210" height="22" as="geometry" />
        </mxCell>
        <mxCell id="WMn6grZ0DW30NmEa86e4-266" value="# &lt;i&gt;controleSaisie&lt;/i&gt;&lt;span style=&quot;background-color: initial;&quot;&gt;: bool&lt;/span&gt;" style="text;strokeColor=none;fillColor=none;align=left;verticalAlign=top;spacingLeft=4;spacingRight=4;overflow=hidden;rotatable=0;points=[[0,0.5],[1,0.5]];portConstraint=eastwest;whiteSpace=wrap;html=1;" parent="WMn6grZ0DW30NmEa86e4-248" vertex="1">
          <mxGeometry y="113" width="210" height="26" as="geometry" />
        </mxCell>
        <mxCell id="WMn6grZ0DW30NmEa86e4-252" value="FormulaireImpl&lt;br&gt;(Implémentation)" style="swimlane;fontStyle=0;childLayout=stackLayout;horizontal=1;startSize=40;fillColor=none;horizontalStack=0;resizeParent=1;resizeParentMax=0;resizeLast=0;collapsible=1;marginBottom=0;whiteSpace=wrap;html=1;" parent="1" vertex="1">
          <mxGeometry x="1843" y="408" width="170" height="92" as="geometry" />
        </mxCell>
        <mxCell id="WMn6grZ0DW30NmEa86e4-254" value="+ dessineTexte: void" style="text;strokeColor=none;fillColor=none;align=left;verticalAlign=top;spacingLeft=4;spacingRight=4;overflow=hidden;rotatable=0;points=[[0,0.5],[1,0.5]];portConstraint=eastwest;whiteSpace=wrap;html=1;" parent="WMn6grZ0DW30NmEa86e4-252" vertex="1">
          <mxGeometry y="40" width="170" height="26" as="geometry" />
        </mxCell>
        <mxCell id="WMn6grZ0DW30NmEa86e4-255" value="+&amp;nbsp;gereZoneSaisie: string" style="text;strokeColor=none;fillColor=none;align=left;verticalAlign=top;spacingLeft=4;spacingRight=4;overflow=hidden;rotatable=0;points=[[0,0.5],[1,0.5]];portConstraint=eastwest;whiteSpace=wrap;html=1;" parent="WMn6grZ0DW30NmEa86e4-252" vertex="1">
          <mxGeometry y="66" width="170" height="26" as="geometry" />
        </mxCell>
        <mxCell id="WMn6grZ0DW30NmEa86e4-272" style="edgeStyle=orthogonalEdgeStyle;rounded=0;orthogonalLoop=1;jettySize=auto;html=1;endArrow=diamond;endFill=0;" parent="1" source="WMn6grZ0DW30NmEa86e4-250" target="WMn6grZ0DW30NmEa86e4-252" edge="1">
          <mxGeometry relative="1" as="geometry" />
        </mxCell>
        <mxCell id="4hhJWAARBsWQ5uBNUK1--1" value="TP" style="text;strokeColor=none;fillColor=none;html=1;fontSize=24;fontStyle=1;verticalAlign=middle;align=center;" vertex="1" parent="1">
          <mxGeometry x="1580" y="1010" width="100" height="40" as="geometry" />
        </mxCell>
        <mxCell id="4hhJWAARBsWQ5uBNUK1--55" style="edgeStyle=orthogonalEdgeStyle;rounded=0;orthogonalLoop=1;jettySize=auto;html=1;dashed=1;dashPattern=12 12;" edge="1" parent="1" source="4hhJWAARBsWQ5uBNUK1--4" target="4hhJWAARBsWQ5uBNUK1--50">
          <mxGeometry relative="1" as="geometry" />
        </mxCell>
        <mxCell id="4hhJWAARBsWQ5uBNUK1--4" value="Bibliothèques" style="html=1;whiteSpace=wrap;" vertex="1" parent="1">
          <mxGeometry x="1705" y="990" width="90" height="30" as="geometry" />
        </mxCell>
        <mxCell id="4hhJWAARBsWQ5uBNUK1--145" style="edgeStyle=orthogonalEdgeStyle;rounded=0;orthogonalLoop=1;jettySize=auto;html=1;" edge="1" parent="1" source="4hhJWAARBsWQ5uBNUK1--6" target="4hhJWAARBsWQ5uBNUK1--132">
          <mxGeometry relative="1" as="geometry">
            <Array as="points">
              <mxPoint x="1570" y="1430" />
              <mxPoint x="1750" y="1430" />
            </Array>
          </mxGeometry>
        </mxCell>
        <mxCell id="4hhJWAARBsWQ5uBNUK1--6" value="Langage" style="swimlane;fontStyle=0;childLayout=stackLayout;horizontal=1;startSize=26;fillColor=none;horizontalStack=0;resizeParent=1;resizeParentMax=0;resizeLast=0;collapsible=1;marginBottom=0;whiteSpace=wrap;html=1;" vertex="1" parent="1">
          <mxGeometry x="1500" y="1460" width="140" height="52" as="geometry" />
        </mxCell>
        <mxCell id="4hhJWAARBsWQ5uBNUK1--9" value="+ field: type" style="text;strokeColor=none;fillColor=none;align=left;verticalAlign=top;spacingLeft=4;spacingRight=4;overflow=hidden;rotatable=0;points=[[0,0.5],[1,0.5]];portConstraint=eastwest;whiteSpace=wrap;html=1;" vertex="1" parent="4hhJWAARBsWQ5uBNUK1--6">
          <mxGeometry y="26" width="140" height="26" as="geometry" />
        </mxCell>
        <mxCell id="4hhJWAARBsWQ5uBNUK1--144" style="edgeStyle=orthogonalEdgeStyle;rounded=0;orthogonalLoop=1;jettySize=auto;html=1;" edge="1" parent="1" source="4hhJWAARBsWQ5uBNUK1--10" target="4hhJWAARBsWQ5uBNUK1--132">
          <mxGeometry relative="1" as="geometry" />
        </mxCell>
        <mxCell id="4hhJWAARBsWQ5uBNUK1--10" value="Type" style="swimlane;fontStyle=0;childLayout=stackLayout;horizontal=1;startSize=26;fillColor=none;horizontalStack=0;resizeParent=1;resizeParentMax=0;resizeLast=0;collapsible=1;marginBottom=0;whiteSpace=wrap;html=1;" vertex="1" parent="1">
          <mxGeometry x="1680" y="1460" width="140" height="52" as="geometry" />
        </mxCell>
        <mxCell id="4hhJWAARBsWQ5uBNUK1--13" value="+ field: type" style="text;strokeColor=none;fillColor=none;align=left;verticalAlign=top;spacingLeft=4;spacingRight=4;overflow=hidden;rotatable=0;points=[[0,0.5],[1,0.5]];portConstraint=eastwest;whiteSpace=wrap;html=1;" vertex="1" parent="4hhJWAARBsWQ5uBNUK1--10">
          <mxGeometry y="26" width="140" height="26" as="geometry" />
        </mxCell>
        <mxCell id="4hhJWAARBsWQ5uBNUK1--143" style="edgeStyle=orthogonalEdgeStyle;rounded=0;orthogonalLoop=1;jettySize=auto;html=1;" edge="1" parent="1" source="4hhJWAARBsWQ5uBNUK1--35" target="4hhJWAARBsWQ5uBNUK1--132">
          <mxGeometry relative="1" as="geometry">
            <Array as="points">
              <mxPoint x="1920" y="1430" />
              <mxPoint x="1750" y="1430" />
            </Array>
          </mxGeometry>
        </mxCell>
        <mxCell id="4hhJWAARBsWQ5uBNUK1--35" value="Style" style="swimlane;fontStyle=0;childLayout=stackLayout;horizontal=1;startSize=26;fillColor=none;horizontalStack=0;resizeParent=1;resizeParentMax=0;resizeLast=0;collapsible=1;marginBottom=0;whiteSpace=wrap;html=1;" vertex="1" parent="1">
          <mxGeometry x="1850" y="1460" width="140" height="52" as="geometry" />
        </mxCell>
        <mxCell id="4hhJWAARBsWQ5uBNUK1--36" value="+ field: type" style="text;strokeColor=none;fillColor=none;align=left;verticalAlign=top;spacingLeft=4;spacingRight=4;overflow=hidden;rotatable=0;points=[[0,0.5],[1,0.5]];portConstraint=eastwest;whiteSpace=wrap;html=1;" vertex="1" parent="4hhJWAARBsWQ5uBNUK1--35">
          <mxGeometry y="26" width="140" height="26" as="geometry" />
        </mxCell>
        <mxCell id="4hhJWAARBsWQ5uBNUK1--49" value="Decorator" style="text;strokeColor=none;fillColor=none;html=1;fontSize=24;fontStyle=1;verticalAlign=middle;align=center;" vertex="1" parent="1">
          <mxGeometry x="1440" y="1081" width="200" height="110" as="geometry" />
        </mxCell>
        <mxCell id="4hhJWAARBsWQ5uBNUK1--50" value="Livre" style="swimlane;fontStyle=0;childLayout=stackLayout;horizontal=1;startSize=26;fillColor=none;horizontalStack=0;resizeParent=1;resizeParentMax=0;resizeLast=0;collapsible=1;marginBottom=0;whiteSpace=wrap;html=1;" vertex="1" parent="1">
          <mxGeometry x="1680" y="1110" width="140" height="130" as="geometry" />
        </mxCell>
        <mxCell id="4hhJWAARBsWQ5uBNUK1--51" value="+ Nom sting" style="text;strokeColor=none;fillColor=none;align=left;verticalAlign=top;spacingLeft=4;spacingRight=4;overflow=hidden;rotatable=0;points=[[0,0.5],[1,0.5]];portConstraint=eastwest;whiteSpace=wrap;html=1;" vertex="1" parent="4hhJWAARBsWQ5uBNUK1--50">
          <mxGeometry y="26" width="140" height="26" as="geometry" />
        </mxCell>
        <mxCell id="4hhJWAARBsWQ5uBNUK1--52" value="+ Type string" style="text;strokeColor=none;fillColor=none;align=left;verticalAlign=top;spacingLeft=4;spacingRight=4;overflow=hidden;rotatable=0;points=[[0,0.5],[1,0.5]];portConstraint=eastwest;whiteSpace=wrap;html=1;" vertex="1" parent="4hhJWAARBsWQ5uBNUK1--50">
          <mxGeometry y="52" width="140" height="26" as="geometry" />
        </mxCell>
        <mxCell id="4hhJWAARBsWQ5uBNUK1--54" value="+ Langage : string" style="text;strokeColor=none;fillColor=none;align=left;verticalAlign=top;spacingLeft=4;spacingRight=4;overflow=hidden;rotatable=0;points=[[0,0.5],[1,0.5]];portConstraint=eastwest;whiteSpace=wrap;html=1;" vertex="1" parent="4hhJWAARBsWQ5uBNUK1--50">
          <mxGeometry y="78" width="140" height="26" as="geometry" />
        </mxCell>
        <mxCell id="4hhJWAARBsWQ5uBNUK1--53" value="+ Style : string" style="text;strokeColor=none;fillColor=none;align=left;verticalAlign=top;spacingLeft=4;spacingRight=4;overflow=hidden;rotatable=0;points=[[0,0.5],[1,0.5]];portConstraint=eastwest;whiteSpace=wrap;html=1;" vertex="1" parent="4hhJWAARBsWQ5uBNUK1--50">
          <mxGeometry y="104" width="140" height="26" as="geometry" />
        </mxCell>
        <mxCell id="4hhJWAARBsWQ5uBNUK1--60" value="Chain of Responsability" style="text;strokeColor=none;fillColor=none;html=1;fontSize=24;fontStyle=1;verticalAlign=middle;align=center;" vertex="1" parent="1">
          <mxGeometry x="270" y="1730" width="290" height="64" as="geometry" />
        </mxCell>
        <mxCell id="4hhJWAARBsWQ5uBNUK1--99" value="Voiture/Scooter" style="swimlane;fontStyle=0;childLayout=stackLayout;horizontal=1;startSize=26;fillColor=none;horizontalStack=0;resizeParent=1;resizeParentMax=0;resizeLast=0;collapsible=1;marginBottom=0;whiteSpace=wrap;html=1;" vertex="1" parent="1">
          <mxGeometry x="486" y="1805" width="140" height="26" as="geometry" />
        </mxCell>
        <mxCell id="4hhJWAARBsWQ5uBNUK1--125" style="edgeStyle=orthogonalEdgeStyle;rounded=0;orthogonalLoop=1;jettySize=auto;html=1;" edge="1" parent="1" source="4hhJWAARBsWQ5uBNUK1--106" target="4hhJWAARBsWQ5uBNUK1--99">
          <mxGeometry relative="1" as="geometry" />
        </mxCell>
        <mxCell id="4hhJWAARBsWQ5uBNUK1--106" value="Moteur Electrique" style="swimlane;fontStyle=0;childLayout=stackLayout;horizontal=1;startSize=26;fillColor=none;horizontalStack=0;resizeParent=1;resizeParentMax=0;resizeLast=0;collapsible=1;marginBottom=0;whiteSpace=wrap;html=1;" vertex="1" parent="1">
          <mxGeometry x="616" y="1881" width="140" height="74" as="geometry" />
        </mxCell>
        <mxCell id="4hhJWAARBsWQ5uBNUK1--111" value="+ Scooter: Scooter" style="text;strokeColor=none;fillColor=none;align=left;verticalAlign=top;spacingLeft=4;spacingRight=4;overflow=hidden;rotatable=0;points=[[0,0.5],[1,0.5]];portConstraint=eastwest;whiteSpace=wrap;html=1;" vertex="1" parent="4hhJWAARBsWQ5uBNUK1--106">
          <mxGeometry y="26" width="140" height="24" as="geometry" />
        </mxCell>
        <mxCell id="4hhJWAARBsWQ5uBNUK1--110" value="+ Voiture: Voiture" style="text;strokeColor=none;fillColor=none;align=left;verticalAlign=top;spacingLeft=4;spacingRight=4;overflow=hidden;rotatable=0;points=[[0,0.5],[1,0.5]];portConstraint=eastwest;whiteSpace=wrap;html=1;" vertex="1" parent="4hhJWAARBsWQ5uBNUK1--106">
          <mxGeometry y="50" width="140" height="24" as="geometry" />
        </mxCell>
        <mxCell id="4hhJWAARBsWQ5uBNUK1--124" style="edgeStyle=orthogonalEdgeStyle;rounded=0;orthogonalLoop=1;jettySize=auto;html=1;" edge="1" parent="1" source="4hhJWAARBsWQ5uBNUK1--112" target="4hhJWAARBsWQ5uBNUK1--99">
          <mxGeometry relative="1" as="geometry" />
        </mxCell>
        <mxCell id="4hhJWAARBsWQ5uBNUK1--112" value="Moteur Essence" style="swimlane;fontStyle=0;childLayout=stackLayout;horizontal=1;startSize=26;fillColor=none;horizontalStack=0;resizeParent=1;resizeParentMax=0;resizeLast=0;collapsible=1;marginBottom=0;whiteSpace=wrap;html=1;" vertex="1" parent="1">
          <mxGeometry x="369" y="1881" width="140" height="74" as="geometry" />
        </mxCell>
        <mxCell id="4hhJWAARBsWQ5uBNUK1--113" value="+ Scooter: Scooter" style="text;strokeColor=none;fillColor=none;align=left;verticalAlign=top;spacingLeft=4;spacingRight=4;overflow=hidden;rotatable=0;points=[[0,0.5],[1,0.5]];portConstraint=eastwest;whiteSpace=wrap;html=1;" vertex="1" parent="4hhJWAARBsWQ5uBNUK1--112">
          <mxGeometry y="26" width="140" height="24" as="geometry" />
        </mxCell>
        <mxCell id="4hhJWAARBsWQ5uBNUK1--114" value="+ Voiture: Voiture" style="text;strokeColor=none;fillColor=none;align=left;verticalAlign=top;spacingLeft=4;spacingRight=4;overflow=hidden;rotatable=0;points=[[0,0.5],[1,0.5]];portConstraint=eastwest;whiteSpace=wrap;html=1;" vertex="1" parent="4hhJWAARBsWQ5uBNUK1--112">
          <mxGeometry y="50" width="140" height="24" as="geometry" />
        </mxCell>
        <mxCell id="4hhJWAARBsWQ5uBNUK1--128" style="edgeStyle=orthogonalEdgeStyle;rounded=0;orthogonalLoop=1;jettySize=auto;html=1;" edge="1" parent="1" source="4hhJWAARBsWQ5uBNUK1--115" target="4hhJWAARBsWQ5uBNUK1--112">
          <mxGeometry relative="1" as="geometry" />
        </mxCell>
        <mxCell id="4hhJWAARBsWQ5uBNUK1--131" style="edgeStyle=orthogonalEdgeStyle;rounded=0;orthogonalLoop=1;jettySize=auto;html=1;" edge="1" parent="1" source="4hhJWAARBsWQ5uBNUK1--115" target="4hhJWAARBsWQ5uBNUK1--106">
          <mxGeometry relative="1" as="geometry">
            <Array as="points">
              <mxPoint x="491" y="1985" />
              <mxPoint x="631" y="1985" />
            </Array>
          </mxGeometry>
        </mxCell>
        <mxCell id="4hhJWAARBsWQ5uBNUK1--115" value="Boite de Vitesse&lt;br style=&quot;border-color: var(--border-color);&quot;&gt;Automatique" style="swimlane;fontStyle=0;childLayout=stackLayout;horizontal=1;startSize=40;fillColor=none;horizontalStack=0;resizeParent=1;resizeParentMax=0;resizeLast=0;collapsible=1;marginBottom=0;whiteSpace=wrap;html=1;" vertex="1" parent="1">
          <mxGeometry x="324" y="2027" width="230" height="88" as="geometry" />
        </mxCell>
        <mxCell id="4hhJWAARBsWQ5uBNUK1--116" value="+&amp;nbsp;Moteur Essence:&amp;nbsp;Moteur Essence" style="text;strokeColor=none;fillColor=none;align=left;verticalAlign=top;spacingLeft=4;spacingRight=4;overflow=hidden;rotatable=0;points=[[0,0.5],[1,0.5]];portConstraint=eastwest;whiteSpace=wrap;html=1;" vertex="1" parent="4hhJWAARBsWQ5uBNUK1--115">
          <mxGeometry y="40" width="230" height="24" as="geometry" />
        </mxCell>
        <mxCell id="4hhJWAARBsWQ5uBNUK1--117" value="+&amp;nbsp;Moteur Electrique:&amp;nbsp;Moteur Electrique" style="text;strokeColor=none;fillColor=none;align=left;verticalAlign=top;spacingLeft=4;spacingRight=4;overflow=hidden;rotatable=0;points=[[0,0.5],[1,0.5]];portConstraint=eastwest;whiteSpace=wrap;html=1;" vertex="1" parent="4hhJWAARBsWQ5uBNUK1--115">
          <mxGeometry y="64" width="230" height="24" as="geometry" />
        </mxCell>
        <mxCell id="4hhJWAARBsWQ5uBNUK1--129" style="edgeStyle=orthogonalEdgeStyle;rounded=0;orthogonalLoop=1;jettySize=auto;html=1;" edge="1" parent="1" source="4hhJWAARBsWQ5uBNUK1--118" target="4hhJWAARBsWQ5uBNUK1--106">
          <mxGeometry relative="1" as="geometry" />
        </mxCell>
        <mxCell id="4hhJWAARBsWQ5uBNUK1--130" style="edgeStyle=orthogonalEdgeStyle;rounded=0;orthogonalLoop=1;jettySize=auto;html=1;" edge="1" parent="1" source="4hhJWAARBsWQ5uBNUK1--118" target="4hhJWAARBsWQ5uBNUK1--112">
          <mxGeometry relative="1" as="geometry">
            <Array as="points">
              <mxPoint x="631" y="1985" />
              <mxPoint x="491" y="1985" />
            </Array>
          </mxGeometry>
        </mxCell>
        <mxCell id="4hhJWAARBsWQ5uBNUK1--118" value="Boite de Vitesse&lt;br style=&quot;border-color: var(--border-color);&quot;&gt;Manuelle" style="swimlane;fontStyle=0;childLayout=stackLayout;horizontal=1;startSize=40;fillColor=none;horizontalStack=0;resizeParent=1;resizeParentMax=0;resizeLast=0;collapsible=1;marginBottom=0;whiteSpace=wrap;html=1;" vertex="1" parent="1">
          <mxGeometry x="571" y="2027" width="230" height="88" as="geometry" />
        </mxCell>
        <mxCell id="4hhJWAARBsWQ5uBNUK1--119" value="+&amp;nbsp;Moteur Essence:&amp;nbsp;Moteur Essence" style="text;strokeColor=none;fillColor=none;align=left;verticalAlign=top;spacingLeft=4;spacingRight=4;overflow=hidden;rotatable=0;points=[[0,0.5],[1,0.5]];portConstraint=eastwest;whiteSpace=wrap;html=1;" vertex="1" parent="4hhJWAARBsWQ5uBNUK1--118">
          <mxGeometry y="40" width="230" height="24" as="geometry" />
        </mxCell>
        <mxCell id="4hhJWAARBsWQ5uBNUK1--120" value="+&amp;nbsp;Moteur Electrique:&amp;nbsp;Moteur Electrique" style="text;strokeColor=none;fillColor=none;align=left;verticalAlign=top;spacingLeft=4;spacingRight=4;overflow=hidden;rotatable=0;points=[[0,0.5],[1,0.5]];portConstraint=eastwest;whiteSpace=wrap;html=1;" vertex="1" parent="4hhJWAARBsWQ5uBNUK1--118">
          <mxGeometry y="64" width="230" height="24" as="geometry" />
        </mxCell>
        <mxCell id="4hhJWAARBsWQ5uBNUK1--126" style="edgeStyle=orthogonalEdgeStyle;rounded=0;orthogonalLoop=1;jettySize=auto;html=1;" edge="1" parent="1" source="4hhJWAARBsWQ5uBNUK1--121" target="4hhJWAARBsWQ5uBNUK1--115">
          <mxGeometry relative="1" as="geometry" />
        </mxCell>
        <mxCell id="4hhJWAARBsWQ5uBNUK1--127" style="edgeStyle=orthogonalEdgeStyle;rounded=0;orthogonalLoop=1;jettySize=auto;html=1;" edge="1" parent="1" source="4hhJWAARBsWQ5uBNUK1--121" target="4hhJWAARBsWQ5uBNUK1--118">
          <mxGeometry relative="1" as="geometry" />
        </mxCell>
        <mxCell id="4hhJWAARBsWQ5uBNUK1--121" value="Roue" style="swimlane;fontStyle=0;childLayout=stackLayout;horizontal=1;startSize=26;fillColor=none;horizontalStack=0;resizeParent=1;resizeParentMax=0;resizeLast=0;collapsible=1;marginBottom=0;whiteSpace=wrap;html=1;" vertex="1" parent="1">
          <mxGeometry x="381" y="2175" width="350" height="74" as="geometry" />
        </mxCell>
        <mxCell id="4hhJWAARBsWQ5uBNUK1--122" value="+ Boite de Vitesse&amp;nbsp;&lt;span style=&quot;text-align: center;&quot;&gt;Automatique&lt;/span&gt;:&amp;nbsp;Boite de Vitesse&amp;nbsp;&lt;span style=&quot;text-align: center;&quot;&gt;Automatique&lt;/span&gt;" style="text;strokeColor=none;fillColor=none;align=left;verticalAlign=top;spacingLeft=4;spacingRight=4;overflow=hidden;rotatable=0;points=[[0,0.5],[1,0.5]];portConstraint=eastwest;whiteSpace=wrap;html=1;" vertex="1" parent="4hhJWAARBsWQ5uBNUK1--121">
          <mxGeometry y="26" width="350" height="24" as="geometry" />
        </mxCell>
        <mxCell id="4hhJWAARBsWQ5uBNUK1--123" value="+Boite de Vitesse&amp;nbsp;&lt;span style=&quot;text-align: center;&quot;&gt;Manuelle&amp;nbsp;&lt;/span&gt;:&amp;nbsp;Boite de Vitesse&amp;nbsp;&lt;span style=&quot;text-align: center;&quot;&gt;Manuelle&lt;/span&gt;" style="text;strokeColor=none;fillColor=none;align=left;verticalAlign=top;spacingLeft=4;spacingRight=4;overflow=hidden;rotatable=0;points=[[0,0.5],[1,0.5]];portConstraint=eastwest;whiteSpace=wrap;html=1;" vertex="1" parent="4hhJWAARBsWQ5uBNUK1--121">
          <mxGeometry y="50" width="350" height="24" as="geometry" />
        </mxCell>
        <mxCell id="4hhJWAARBsWQ5uBNUK1--140" style="edgeStyle=orthogonalEdgeStyle;rounded=0;orthogonalLoop=1;jettySize=auto;html=1;dashed=1;dashPattern=12 12;" edge="1" parent="1" source="4hhJWAARBsWQ5uBNUK1--132" target="4hhJWAARBsWQ5uBNUK1--50">
          <mxGeometry relative="1" as="geometry" />
        </mxCell>
        <mxCell id="4hhJWAARBsWQ5uBNUK1--132" value="Decorator" style="swimlane;fontStyle=0;childLayout=stackLayout;horizontal=1;startSize=26;fillColor=none;horizontalStack=0;resizeParent=1;resizeParentMax=0;resizeLast=0;collapsible=1;marginBottom=0;whiteSpace=wrap;html=1;" vertex="1" parent="1">
          <mxGeometry x="1680" y="1290" width="140" height="104" as="geometry" />
        </mxCell>
        <mxCell id="4hhJWAARBsWQ5uBNUK1--137" value="+ Type string" style="text;strokeColor=none;fillColor=none;align=left;verticalAlign=top;spacingLeft=4;spacingRight=4;overflow=hidden;rotatable=0;points=[[0,0.5],[1,0.5]];portConstraint=eastwest;whiteSpace=wrap;html=1;" vertex="1" parent="4hhJWAARBsWQ5uBNUK1--132">
          <mxGeometry y="26" width="140" height="26" as="geometry" />
        </mxCell>
        <mxCell id="4hhJWAARBsWQ5uBNUK1--139" value="+ Style : string" style="text;strokeColor=none;fillColor=none;align=left;verticalAlign=top;spacingLeft=4;spacingRight=4;overflow=hidden;rotatable=0;points=[[0,0.5],[1,0.5]];portConstraint=eastwest;whiteSpace=wrap;html=1;" vertex="1" parent="4hhJWAARBsWQ5uBNUK1--132">
          <mxGeometry y="52" width="140" height="26" as="geometry" />
        </mxCell>
        <mxCell id="4hhJWAARBsWQ5uBNUK1--138" value="+ Langage : string" style="text;strokeColor=none;fillColor=none;align=left;verticalAlign=top;spacingLeft=4;spacingRight=4;overflow=hidden;rotatable=0;points=[[0,0.5],[1,0.5]];portConstraint=eastwest;whiteSpace=wrap;html=1;" vertex="1" parent="4hhJWAARBsWQ5uBNUK1--132">
          <mxGeometry y="78" width="140" height="26" as="geometry" />
        </mxCell>
        <mxCell id="4hhJWAARBsWQ5uBNUK1--141" style="edgeStyle=orthogonalEdgeStyle;rounded=0;orthogonalLoop=1;jettySize=auto;html=1;startArrow=diamond;startFill=0;" edge="1" parent="1" source="4hhJWAARBsWQ5uBNUK1--139" target="4hhJWAARBsWQ5uBNUK1--50">
          <mxGeometry relative="1" as="geometry">
            <Array as="points">
              <mxPoint x="1930" y="1355" />
              <mxPoint x="1930" y="1180" />
            </Array>
          </mxGeometry>
        </mxCell>
      </root>
    </mxGraphModel>
  </diagram>
</mxfile>
